<svg xmlns="http://www.w3.org/2000/svg" xmlns:v="https://svgstorm.com"
viewBox = "0 0 500 500"
width="500"
height="500">
<g fill="None" fill-opacity="0.0" stroke="#FEFEFE" stroke-opacity="1.00" stroke-width="0.3"><path d="
M 0.00 500.00 
L 500.00 500.00
L 500.00 0.00
L 0.00 0.00
L 0.00 500.00
M 319.00 244.00 
C 318.74 253.95 310.98 260.88 301.77 262.77 C 300.07 271.94 292.74 279.69 283.00 280.00
C 283.08 301.08 254.59 301.58 246.25 284.75 C 239.87 286.77 233.99 298.17 224.00 295.00 C 214.62 294.38 210.93 284.94 208.25 277.75 C 199.66 277.02 190.98 269.37 192.00 260.00
C 182.50 259.91 173.44 251.89 174.00 242.00
C 159.79 243.75 158.76 227.69 150.25 220.75 C 117.05 185.26 135.07 119.57 183.07 108.07 C 195.23 104.34 210.13 103.13 222.22 107.78 C 233.37 108.52 241.99 120.31 251.70 120.69 C 288.29 87.64 353.27 110.07 362.98 158.02 C 370.80 181.34 361.53 206.77 345.25 224.25 C 336.44 231.08 331.52 244.45 319.00 244.00 Z"/>
</g>
<g fill="None" fill-opacity="0.0" stroke="#94433C" stroke-opacity="1.00" stroke-width="0.3"><path d="
M 319.00 244.00 
C 331.52 244.45 336.44 231.08 345.25 224.25 C 361.53 206.77 370.80 181.34 362.98 158.02 C 353.27 110.07 288.29 87.64 251.70 120.69 C 241.99 120.31 233.37 108.52 222.22 107.78 C 210.13 103.13 195.23 104.34 183.07 108.07 C 135.07 119.57 117.05 185.26 150.25 220.75 C 158.76 227.69 159.79 243.75 174.00 242.00
C 173.44 251.89 182.50 259.91 192.00 260.00
C 190.98 269.37 199.66 277.02 208.25 277.75 C 210.93 284.94 214.62 294.38 224.00 295.00 C 233.99 298.17 239.87 286.77 246.25 284.75 C 254.59 301.58 283.08 301.08 283.00 280.00
C 292.74 279.69 300.07 271.94 301.77 262.77 C 310.98 260.88 318.74 253.95 319.00 244.00
M 265.00 162.00 
C 283.85 179.69 301.76 198.59 320.25 216.75 C 330.72 221.05 327.98 239.00 315.78 234.22 C 302.64 223.48 291.21 210.06 278.75 198.25 C 267.40 188.46 267.91 206.84 277.75 210.25 C 283.91 216.42 290.09 222.58 296.25 228.75 C 301.68 234.32 313.35 240.29 308.22 249.22 C 300.83 258.69 292.34 246.77 286.75 241.25 C 280.58 235.09 274.42 228.91 268.25 222.75 C 264.99 214.44 246.35 208.39 254.25 221.75 C 266.42 233.91 278.58 246.09 290.75 258.25 C 296.61 268.86 279.85 275.54 274.75 265.25 C 262.39 253.34 250.66 240.27 237.92 229.08 C 224.38 227.05 236.38 242.07 242.25 245.75 C 248.42 251.91 254.58 258.09 260.75 264.25 C 265.54 270.54 278.92 276.94 271.75 285.75 C 263.60 292.99 254.78 281.31 251.03 274.97 C 253.19 264.43 246.44 254.24 235.93 253.07 C 232.17 245.96 227.80 235.37 216.78 235.22 C 215.81 225.04 207.54 218.87 198.26 216.74 C 195.11 192.06 167.63 201.32 157.30 214.64 C 119.89 176.60 156.74 105.84 210.00 114.00 C 219.53 115.41 228.61 118.93 236.70 124.30 C 248.22 129.28 233.14 136.67 229.25 142.25 C 214.91 152.31 199.40 175.23 219.70 187.30 C 239.69 196.11 251.68 172.45 265.00 162.00
M 337.00 220.00 
C 313.00 196.83 289.12 172.95 266.00 149.00
C 255.82 158.03 246.57 168.25 236.75 177.75 C 218.67 190.41 212.87 161.30 229.75 154.75 C 249.89 133.04 273.26 108.30 305.00 115.00 C 354.04 119.73 373.52 188.14 337.00 220.00
M 184.00 209.00 
C 196.69 216.30 181.14 233.27 171.33 232.67 C 157.68 226.14 174.16 208.63 184.00 209.00
M 202.00 227.00 
C 214.77 234.16 198.52 252.39 188.78 250.22 C 175.16 243.81 191.77 225.57 202.00 227.00
M 220.00 245.00 
C 232.26 252.40 216.06 269.33 206.00 268.00 C 193.26 260.74 210.22 243.61 220.00 245.00
M 237.00 262.00 
C 249.62 269.40 235.02 287.13 224.33 285.67 C 211.03 278.91 227.13 261.79 237.00 262.00 Z"/>
</g>
<g fill="None" fill-opacity="0.0" stroke="#FBCAC6" stroke-opacity="1.00" stroke-width="0.3"><path d="
M 265.00 162.00 
C 251.68 172.45 239.69 196.11 219.70 187.30 C 199.40 175.23 214.91 152.31 229.25 142.25 C 233.14 136.67 248.22 129.28 236.70 124.30 C 228.61 118.93 219.53 115.41 210.00 114.00 C 156.74 105.84 119.89 176.60 157.30 214.64 C 167.63 201.32 195.11 192.06 198.26 216.74 C 207.54 218.87 215.81 225.04 216.78 235.22 C 227.80 235.37 232.17 245.96 235.93 253.07 C 246.44 254.24 253.19 264.43 251.03 274.97 C 254.78 281.31 263.60 292.99 271.75 285.75 C 278.92 276.94 265.54 270.54 260.75 264.25 C 254.58 258.09 248.42 251.91 242.25 245.75 C 236.38 242.07 224.38 227.05 237.92 229.08 C 250.66 240.27 262.39 253.34 274.75 265.25 C 279.85 275.54 296.61 268.86 290.75 258.25 C 278.58 246.09 266.42 233.91 254.25 221.75 C 246.35 208.39 264.99 214.44 268.25 222.75 C 274.42 228.91 280.58 235.09 286.75 241.25 C 292.34 246.77 300.83 258.69 308.22 249.22 C 313.35 240.29 301.68 234.32 296.25 228.75 C 290.09 222.58 283.91 216.42 277.75 210.25 C 267.91 206.84 267.40 188.46 278.75 198.25 C 291.21 210.06 302.64 223.48 315.78 234.22 C 327.98 239.00 330.72 221.05 320.25 216.75 C 301.76 198.59 283.85 179.69 265.00 162.00 Z"/>
</g>
<g fill="None" fill-opacity="0.0" stroke="#DF867E" stroke-opacity="1.00" stroke-width="0.3"><path d="
M 337.00 220.00 
C 373.52 188.14 354.04 119.73 305.00 115.00 C 273.26 108.30 249.89 133.04 229.75 154.75 C 212.87 161.30 218.67 190.41 236.75 177.75 C 246.57 168.25 255.82 158.03 266.00 149.00
C 289.12 172.95 313.00 196.83 337.00 220.00 Z"/>
</g>
<g fill="None" fill-opacity="0.0" stroke="#DE867E" stroke-opacity="1.00" stroke-width="0.3"><path d="
M 184.00 209.00 
C 174.16 208.63 157.68 226.14 171.33 232.67 C 181.14 233.27 196.69 216.30 184.00 209.00 Z"/>
</g>
<g fill="None" fill-opacity="0.0" stroke="#DD857D" stroke-opacity="1.00" stroke-width="0.3"><path d="
M 202.00 227.00 
C 191.77 225.57 175.16 243.81 188.78 250.22 C 198.52 252.39 214.77 234.16 202.00 227.00 Z"/>
</g>
<g fill="None" fill-opacity="0.0" stroke="#DE867D" stroke-opacity="1.00" stroke-width="0.3"><path d="
M 220.00 245.00 
C 210.22 243.61 193.26 260.74 206.00 268.00 C 216.06 269.33 232.26 252.40 220.00 245.00 Z"/>
</g>
<g fill="None" fill-opacity="0.0" stroke="#DD857D" stroke-opacity="1.00" stroke-width="0.3"><path d="
M 237.00 262.00 
C 227.13 261.79 211.03 278.91 224.33 285.67 C 235.02 287.13 249.62 269.40 237.00 262.00 Z"/>
</g>
<g fill="#FEFEFE" fill-opacity="1.00" stroke="None"><path d="
M 0.00 500.00 
L 500.00 500.00
L 500.00 0.00
L 0.00 0.00
L 0.00 500.00 Z"/>
</g>
<g fill="#94433C" fill-opacity="1.00" stroke="None"><path d="
M 319.00 244.00 
C 331.52 244.45 336.44 231.08 345.25 224.25 C 361.53 206.77 370.80 181.34 362.98 158.02 C 353.27 110.07 288.29 87.64 251.70 120.69 C 241.99 120.31 233.37 108.52 222.22 107.78 C 210.13 103.13 195.23 104.34 183.07 108.07 C 135.07 119.57 117.05 185.26 150.25 220.75 C 158.76 227.69 159.79 243.75 174.00 242.00
C 173.44 251.89 182.50 259.91 192.00 260.00
C 190.98 269.37 199.66 277.02 208.25 277.75 C 210.93 284.94 214.62 294.38 224.00 295.00 C 233.99 298.17 239.87 286.77 246.25 284.75 C 254.59 301.58 283.08 301.08 283.00 280.00
C 292.74 279.69 300.07 271.94 301.77 262.77 C 310.98 260.88 318.74 253.95 319.00 244.00 Z"/>
</g>
<g fill="#FBCAC6" fill-opacity="1.00" stroke="None"><path d="
M 265.00 162.00 
C 251.68 172.45 239.69 196.11 219.70 187.30 C 199.40 175.23 214.91 152.31 229.25 142.25 C 233.14 136.67 248.22 129.28 236.70 124.30 C 228.61 118.93 219.53 115.41 210.00 114.00 C 156.74 105.84 119.89 176.60 157.30 214.64 C 167.63 201.32 195.11 192.06 198.26 216.74 C 207.54 218.87 215.81 225.04 216.78 235.22 C 227.80 235.37 232.17 245.96 235.93 253.07 C 246.44 254.24 253.19 264.43 251.03 274.97 C 254.78 281.31 263.60 292.99 271.75 285.75 C 278.92 276.94 265.54 270.54 260.75 264.25 C 254.58 258.09 248.42 251.91 242.25 245.75 C 236.38 242.07 224.38 227.05 237.92 229.08 C 250.66 240.27 262.39 253.34 274.75 265.25 C 279.85 275.54 296.61 268.86 290.75 258.25 C 278.58 246.09 266.42 233.91 254.25 221.75 C 246.35 208.39 264.99 214.44 268.25 222.75 C 274.42 228.91 280.58 235.09 286.75 241.25 C 292.34 246.77 300.83 258.69 308.22 249.22 C 313.35 240.29 301.68 234.32 296.25 228.75 C 290.09 222.58 283.91 216.42 277.75 210.25 C 267.91 206.84 267.40 188.46 278.75 198.25 C 291.21 210.06 302.64 223.48 315.78 234.22 C 327.98 239.00 330.72 221.05 320.25 216.75 C 301.76 198.59 283.85 179.69 265.00 162.00 Z"/>
</g>
<g fill="#DF867E" fill-opacity="1.00" stroke="None"><path d="
M 337.00 220.00 
C 373.52 188.14 354.04 119.73 305.00 115.00 C 273.26 108.30 249.89 133.04 229.75 154.75 C 212.87 161.30 218.67 190.41 236.75 177.75 C 246.57 168.25 255.82 158.03 266.00 149.00
C 289.12 172.95 313.00 196.83 337.00 220.00 Z"/>
</g>
<g fill="#DE867E" fill-opacity="1.00" stroke="None"><path d="
M 184.00 209.00 
C 174.16 208.63 157.68 226.14 171.33 232.67 C 181.14 233.27 196.69 216.30 184.00 209.00 Z"/>
</g>
<g fill="#DD857D" fill-opacity="1.00" stroke="None"><path d="
M 202.00 227.00 
C 191.77 225.57 175.16 243.81 188.78 250.22 C 198.52 252.39 214.77 234.16 202.00 227.00 Z"/>
</g>
<g fill="#DE867D" fill-opacity="1.00" stroke="None"><path d="
M 220.00 245.00 
C 210.22 243.61 193.26 260.74 206.00 268.00 C 216.06 269.33 232.26 252.40 220.00 245.00 Z"/>
</g>
<g fill="#DD857D" fill-opacity="1.00" stroke="None"><path d="
M 237.00 262.00 
C 227.13 261.79 211.03 278.91 224.33 285.67 C 235.02 287.13 249.62 269.40 237.00 262.00 Z"/>
</g>
</svg>